<svg data-v-423bf9ae="" xmlns="http://www.w3.org/2000/svg" viewBox="0 0 266.9060299318221 60" class="font"><!----><!----><defs data-v-423bf9ae=""><linearGradient data-v-423bf9ae="" gradientTransform="rotate(25)" id="7f8a801a-262b-4013-8b6e-f72d2fe8a88d" x1="0%" y1="0%" x2="100%" y2="0%"><stop data-v-423bf9ae="" offset="0%" style="stop-color: rgb(13, 124, 233); stop-opacity: 1;"></stop><stop data-v-423bf9ae="" offset="100%" style="stop-color: rgb(21, 207, 241); stop-opacity: 1;"></stop></linearGradient></defs><g data-v-423bf9ae="" id="e769e672-a335-4925-ad91-5d952ff650e1" fill="url(#7f8a801a-262b-4013-8b6e-f72d2fe8a88d)" transform="matrix(4.583651542663574,0,0,4.583651542663574,-5.133688926696777,-0.9625666737556458)"><path d="M2.39 10.50L2.39 2.58L7.66 10.50L9.02 10.50L9.02 0.42L7.74 0.42L7.74 8.34L2.48 0.42L1.12 0.42L1.12 10.50ZM15.74 3.22L15.74 7.18C15.74 8.78 14.95 9.65 13.80 9.65C12.71 9.65 12.31 8.89 12.31 7.63L12.31 3.22L11.05 3.22L11.05 7.69C11.05 9.42 11.54 10.71 13.55 10.71C14.56 10.71 15.33 10.25 15.86 9.45L15.86 10.50L17.00 10.50L17.00 3.22ZM20.36 10.50L20.36 5.95L25.56 5.95L25.56 10.50L26.89 10.50L26.89 0.42L25.56 0.42L25.56 4.76L20.36 4.76L20.36 0.42L19.03 0.42L19.03 10.50ZM35.13 7.18C35.14 7.08 35.14 6.76 35.14 6.72C35.14 4.61 34.03 3.01 31.84 3.01C29.82 3.01 28.50 4.45 28.50 6.86C28.50 9.27 29.82 10.71 31.84 10.71C33.42 10.71 34.62 9.91 35.04 8.29L33.85 8.04C33.60 9.13 32.76 9.66 31.91 9.66C30.86 9.66 29.88 8.93 29.76 7.18ZM31.84 4.06C33.01 4.06 33.74 4.94 33.80 6.17L29.81 6.17C30.03 4.69 30.97 4.06 31.84 4.06ZM37.80 10.50L37.80 0.21L36.54 0.77L36.54 10.50ZM40.88 13.30L40.88 9.73C41.30 10.32 41.93 10.71 42.80 10.71C44.81 10.71 45.92 9.13 45.92 6.86C45.92 4.59 44.81 3.01 42.80 3.01C41.83 3.01 41.16 3.51 40.74 4.21L40.74 3.22L39.62 3.22L39.62 13.30ZM40.73 6.86C40.73 5.01 41.76 4.06 42.73 4.06C43.83 4.06 44.66 5.01 44.66 6.86C44.66 8.71 43.83 9.66 42.73 9.66C41.62 9.66 40.73 8.71 40.73 6.86ZM53.52 7.18C53.54 7.08 53.54 6.76 53.54 6.72C53.54 4.61 52.43 3.01 50.23 3.01C48.22 3.01 46.90 4.45 46.90 6.86C46.90 9.27 48.22 10.71 50.23 10.71C51.81 10.71 53.02 9.91 53.44 8.29L52.25 8.04C52.00 9.13 51.16 9.66 50.30 9.66C49.25 9.66 48.27 8.93 48.16 7.18ZM50.23 4.06C51.41 4.06 52.14 4.94 52.19 6.17L48.20 6.17C48.43 4.69 49.36 4.06 50.23 4.06ZM56.20 10.50L56.20 6.57C56.20 5.15 56.80 4.20 58.00 4.20C58.44 4.20 58.69 4.31 58.97 4.51L59.35 3.40C59.01 3.14 58.62 3.01 58.06 3.01C57.15 3.01 56.53 3.50 56.07 4.48L56.07 3.22L54.94 3.22L54.94 10.50Z"></path></g><!----><!----></svg>